<svg xmlns="http://www.w3.org/2000/svg" version="1.1" xmlns:xlink="http://www.w3.org/1999/xlink" xmlns:svgjs="http://svgjs.dev/svgjs" viewBox="0 0 800 800"><defs><linearGradient x1="50%" y1="0%" x2="50%" y2="100%" id="ssscribble-grad"><stop stop-color="hsl(206, 75%, 49%)" stop-opacity="1" offset="0%"></stop><stop stop-color="hsl(331, 90%, 56%)" stop-opacity="1" offset="100%"></stop></linearGradient></defs><g fill="none" stroke-width="1" stroke="url(#ssscribble-grad)" stroke-linecap="round"><path d="M1277.95 641.07C1077.42 664.06 869.83 689.59 791 717.1 888.44 744.12 1093.04 772.13 1271.49 799.88 1316.18 825.62 1199.21 849.12 993.11 868.52 811.37 883.55 751.91 891.94 834.95 891.85 1010.93 885.42 1179.35 869 1255.26 842.11 1204.69 810.2 1050.94 770.05 863.69 724.2 713.21 680.99 655.83 639.64 698.98 605.63 819.45 586.97 961.84 585.05 1073.57 604.44 1123.83 646.92 1094.72 712.13 1000.71 797.64 862.89 895.13 718.12 998.64 594.85 1097.56 485.11 1207.14 528.45 1216.34 616.86 1109.4 681.47 1013.68 732.98 915.88 767.6 833.49 792.48 784.49 800.31 777.26 794.86 816.51 782.39 897.75 762.47 1008.27 739.13 1128.95 713.86 1237.04 688.93 1312.11 665.94 1337.97 642.95 1309.49 622.45 1232.35 602.94 1123.12 581.5 1002.4 557.3 892.93 526.41 813.59 488.51 776.76 438.09 786.45 371.5 837.53 295.17 921.34 202.84 1019.66 98.39 1114.97 -1.96 1195.01 -96.59 1244.48 -170.48 1257.3 -208.33 1233.33 -203.4 1175.42 -149.87 1092.49 -62.04 992.81 48.51 889.22 153.44 792.28 214.55 707.87 212.1 644.13 131.71 603.31 -10.14 585.67 -181.23 589.21 -328.84 609.24 -399.14 644.37 -367.35 686.47 -240.81 730.07 -77.49 775.99 53.97 815.91 84.03 847.37 -12.38 873.6 -199.53 889.25 -392.35 894.88 -492.25 894.09 -447.76 884.86 -278.99 869.08 -85.86 848.93 20.12 824.79 -33.42 798.54 -220.75 770.3 -432.12 741.91 -534.1 714.65 -459.82 686.9 -254.56 661.25 -54.03 638.26 1.88 615.27 -121.44 595.48 -336.14 578.46 -503.08 560.94 -512.46 545.2 -363 530.1 -146.04 512.99 8.21 494.54 17.07 472.98 -117.71 447.05 -310.81 415.45 -452.26 376.4 -469.63 330.94 -352.66 276.43 -162.62 212.46 16.62 143.25 106.17 66.69 79.97 -14.65 -42.67 -93.69 -199.14 -170 -322.81 -238.02 -371.34 -290.95 -324.89 -326.05 -204.73 -338.54 -43.99 -327.85 107.84 -292.8 215.95 -235.54 264.79 -165.75 250.71 -87.76 190.91 -12.01 99.55 46.97 6.46 82.61 -69.15 86.07 -123.16 52.74 -142.53 -15.44 -130.76 -112.34 -92.76 -224.5 -35.65 -337.78 30.51 -434.57 106.54 -498.62 179.87 -519.29 245.64 -491.33 311.95 -420.86 367.67 -318.16 412.2 -201.98 456.16 -97.3 489.66 -22.49 512.65 5.98 535.64 -19.87 547.58 -92.61 548.39 -196.15 548.64 -312.29 537.04 -416.04 514.09 -488.41 491.67 -518.78 460.92 -500.58 426.61 -438.61 402.14 -343.24 385.86 -230.48 387.71 -117.91 415.77 -19.77 474 50.26 565.75 85.72 679.12 84.44 808.85 50.68 935.64 -6.94 1030.88 -81.92 1079.17 -159.83 1063.23 -230.18 988 -288.55 867.73 -325.07 737.12 -337.41 647.1 -326.68 629.34 -293.19 705.02 -241.64 855.83 -174.73 1037.9 -99.17 1184.48 -20.53 1234.61 60.75 1167.35 137.54 1008.6 207.2 839.06 271.83 740.83 327.11 775.05 373.37 933.35 413.31 1141.42 445.74 1289.18 472.42 1293.29 494.73 1150.01 513.82 941.91 531.44 801.33 547.04 817.48 563.15 988.96 580.91 1208.21 598.18 1333.87 618.08 1277.95 641.07Q1277.95 641.07 1277.95 641.07" opacity="0.15"></path><path d="M1166.96 366.33C1004.76 385.48 819.54 399.28 697.82 407.97 692.77 416.72 802.59 420.52 972.92 419.81 1130.66 419.58 1204.9 415.5 1167.86 408.46 1035.65 403.19 861.79 396.58 711.68 390.23 634.71 388.15 653.8 389.02 752.79 394.94 896.39 408.42 1029.94 429.87 1111.13 461.04 1119.16 501.71 1051.31 553.06 930.31 614.93 783.58 683.57 649.14 759.15 553.17 838.42 508.01 914.92 517.5 986.69 569.66 1048.34 653.53 1094.19 745.21 1121.36 827.02 1126.24 893.09 1108.99 929.28 1069.25 935.24 1009.7 914.33 938.66 870.29 860.5 811.69 783.99 739.93 720.85 665.86 676.75 595.34 658.98 523.6 672.38 460.52 716.31 407.21 787.56 355.86 878.19 313.79 978.24 280.19 1075.06 247.46 1155.62 221.68 1209.09 202.52 1226.97 183.37 1206.92 171.29 1151.61 166.7 1069.77 162.99 972.36 168.29 872.49 183.51 782.75 200.69 713 228.28 670.94 265.26 659.54 301.03 679.25 341.07 724.96 379.63 789.24 405.03 866.35 416.69 944.5 406.15 1014.95 368.73 1073.44 302.01 1111.76 206.41 1127.41 95.07 1120.83 -25.11 1092.05 -136.39 1044.82 -215.96 982.04 -251.75 909.49 -231.7 832.6 -160.84 753.28 -50.31 677.97 73.79 609.89 172.17 548.81 218.68 498.4 190.71 458.74 89.57 428.66 -62.54 408.28 -223.22 395.79 -339.3 390.82 -374.01 390.79 -311.08 393.56 -175.01 400.55 -13.62 407.66 107.77 413.31 134 420.67 50.61 424.98 -114.51 425.37 -292.24 426.21 -407.7 422.48 -406.44 413.77 -288.5 405.12 -105.23 391.34 56.96 372.19 116.85 353.03 48.04 328.96 -112.44 300.29 -291.14 271.69 -403.36 238.65 -401.59 201.68 -288.64 165.17 -113.95 125.37 49.87 83.25 141.69 42.84 129.31 1.71 26.18 -38.47 -127.32 -74.45 -268.43 -106.79 -347.52 -133.28 -341.01 -152.25 -250.98 -162.41 -108.99 -161.87 47.22 -151.74 172.55 -129.84 239.87 -96.18 239.57 -55.51 179.35 -6.51 82.66 47.69 -29.97 99.48 -126.54 148.12 -188.55 188.28 -209.83 212.9 -185.71 220.35 -125.28 206.99 -35.85 171.4 66.16 114.52 167.53 38.96 265.71 -48.57 347.48 -142.33 410.43 -233.48 458.15 -311.81 488.32 -370.01 505.47 -400.53 511.82 -399.95 512.1 -367.06 510.96 -304.71 505.66 -222.37 503.68 -128.14 507.54 -34.52 510.59 43.52 521.24 96.91 540.4 116.98 559.56 99.12 586.77 47.6 621.03 -29.15 654.48 -122.18 693.23 -216.59 734.67 -299.84 771.93 -363.71 807.14 -398.49 835.55 -401.1 853.15 -372.53 857.01 -315.97 842.49 -238.79 812.74 -148.24 763.35 -54.46 696.62 33.65 626.7 110.29 555.22 168.61 495.32 205.82 464.41 220.89 468.81 215.05 517.5 191.83 606.92 152.81 729.79 104.95 867.54 53.57 989.34 -0.59 1073.47 -49.87 1096.39 -91.09 1051.7 -125.56 947.69 -148.4 811.43 -159.55 689.38 -161.2 617.92 -152.11 628.5 -134.14 724.67 -108.61 881.4 -77.11 1048.95 -41.83 1166.12 -2.28 1190.97 38.34 1109.96 78.37 956.95 120.16 791.4 159.73 685.84 196.09 691.47 232.93 809.33 265.9 991.82 294.47 1156.1 323.1 1226.85 347.17 1166.96 366.33Q1166.96 366.33 1166.96 366.33" opacity="0.40"></path><path d="M1055.96 197.25C778.88 227.9 575.48 269.24 655.43 321.8 922.22 376.62 1087.51 446.08 999.56 530.31 741.7 616.6 536.66 713.49 522.87 811.93 782.5 925.74 858.13 937.95 600.57 807.26 435.82 698.84 339.09 600.15 302.82 544.65 312.62 559.26 341.04 645.72 361.2 788.18 387.48 945.26 388.11 1069.98 357.46 1115.97 326.8 1066.64 266.32 939.78 182.23 782.36 62.18 599.53 -36.54 654.37 104.08 813.1 237.77 912.26 347.02 971.38 348.83 984.1 211.77 955.45 -19.27 891.03 -213.46 807.19 -231.59 707.91 -54.04 610.72 181.35 524.51 246.83 440.63 64.1 371.63 -214.51 317.21 -306.29 265.1 -109.11 224.02 167.96 193.37 80.14 153.33 -135.78 141.46 221.39 178.84 250.03 211.93 73.11 258.64 -135.54 310.68 -224.06 347.29 -127.08 367.71 73.77 356.2 281.11 303.32 394.76 207.86 403.11 76.79 326.18 -63.74 221.98 -191.46 137.13 -272.09 67.63 -283.01 42.16 -216.74 48.74 -87.61 67.84 57.96 97.8 178.62 128.46 227.98 159.11 182.01 188.99 63.52 227.71 -81.73 278.93 -212.36 360.16 -281.39 482.78 -273.56 620.75 -195.6 775.43 -69.43 899.6 70.9 938.49 203 868.84 300.35 701.68 355.44 540.99 369.28 480.35 350.76 600.79 315.47 841.36 264.27 1045.78 217.86 1039.6 184.69 713.61 146.72 965.04 157.35 1055.96 197.25Q1055.96 197.25 1055.96 197.25" opacity="0.41"></path><path d="M944.96 664.48C744.43 687.47 537.59 712.54 454.29 737.66 537.08 760.74 722.85 779.97 895.34 791.18 969.79 795.28 907.27 785.8 751.52 759.53 564.46 723.76 423.66 671.53 363.56 606.61 385.93 544.19 465.34 483.73 561.4 437.18 662.25 419.17 731.7 432.97 764.99 484.01 775.55 568.62 760.67 678.64 734.02 797.65 700.19 903.96 668.58 979.09 645.59 1004.97 622.6 976.51 609.32 899.36 599.8 791.93 583.09 672.8 556.15 563.67 505.75 480.67 432.62 431.74 325.32 420.13 189.03 440.07 57.54 488.21 -54.87 549.66 -107.37 612.5 -77.4 677.33 36.14 729.04 199.26 764.05 331.07 789.3 372.97 797.75 281.67 792.74 92.34 780.57 -106.51 760.59 -198.17 737 -123.74 711.37 78.43 686.04 278.96 663.05 334.88 640.06 215.04 620.49 9.76 602.77 -156.42 583.01 -179.2 561.17 -57.93 533.51 141.9 498.68 316.22 452.38 395.29 391.7 361.64 321.26 247.37 236.55 113.23 141.59 -5.35 48.62 -62.24 -40.09 -56.07 -112.17 2.26 -156.05 92.23 -165.07 187.72 -133 291.19 -66.86 377.34 29.17 441.27 139.42 502.29 237.99 543.87 310.49 566.86 338.97 589.85 313.11 593.16 242.65 575.5 145.22 554.92 35.07 510.59 -61.86 446.96 -129.63 391.31 -163.83 339.2 -157.02 316.3 -115.08 345.56 -44.59 435.45 43.11 584.17 135.67 748.44 230.72 889.97 315.95 947.55 387.16 892.42 448.86 738.72 496.2 555.72 531.94 451.31 560.57 487.17 583.16 662.23 603.44 876.38 621.67 1000.88 641.5 944.96 664.48Q944.96 664.48 944.96 664.48" opacity="0.44"></path><path d="M833.96 301.55C454.47 331.76 722.33 286.56 823.1 285.72 694.64 334.34 517.5 432.31 380.64 573.96 261.82 723.72 195.31 847.98 164.66 893.97 134.01 844.64 142.12 718.27 207.81 568.08 291.56 427.57 420.86 331.73 509.15 285.34 456.81 280.55 247.08 298.06 -6.11 313.12 -79.49 336.56 112.88 337.73 389.96 307.07 421.97 276.44 192.74 216.87 -26.16 140.31 -47.39 72.13 137.42 6.78 354.97 -28.6 513.35 -22.4 553.62 40.91 535.65 158.95 479.78 286.66 452.06 400.61 482.71 449.97 513.36 404 599.48 292.18 708.47 164.88 779.57 45.68 787.13 -19.77 668.93 -28.23 491.56 4.85 339.25 68.54 382.94 135.78 624.32 211.62 865.97 270.9 833.96 301.55Q833.96 301.55 833.96 301.55" opacity="0.20"></path></g></svg>